#!OML:ASF E:\CV Data\Top Level 1\Subject 1\Session 1\player.ASF
:FULLY-SPECIFIED
:DEGREES
631
root -1.5016 17.8931 -10.0841 7.02117 69.2507 -5.6687
lowerback 9.24377 2.53079 12.7581
upperback -1.79031 5.44572 5.6583
thorax -6.55985 2.35932 -1.87438
lowerneck -3.08037 -18.24 -18.3116
upperneck -18.6209 -22.1704 21.4186
head -0.406673 -10.8724 8.37929
rclavicle -9.93923e-015 -9.54166e-014
rhumerus 39.4245 -42.604 -86.6381
rradius 53.4899
rwrist -80.2335
rhand 3.21123 -11.5882
rfingers 7.12502
rthumb 28.6624 -39.4095
lclavicle -9.93923e-015 -9.54166e-014
lhumerus -38.02 -5.94385 83.2744
lradius 74.9317
lwrist 13.5157
lhand -14.6458 7.7838
lfingers 7.12502
lthumb 11.5064 37.448
rfemur -20.2537 0.609971 23.9696
rtibia 29.5914
rfoot -17.5121 -23.1036
rtoes 5.34197
lfemur -20.4858 -2.1254 -17.7109
ltibia 24.9893
lfoot -11.7793 -12.1971
ltoes 15.4179
632
root -1.49908 17.8941 -10.0753 7.33565 69.1692 -5.44445
lowerback 9.19921 2.52593 12.7394
upperback -1.78333 5.43396 5.7125
thorax -6.53542 2.35804 -1.80267
lowerneck -3.26231 -18.2462 -18.3737
upperneck -18.1309 -22.2071 21.4005
head -0.226625 -10.8833 8.32598
rclavicle 1.23246e-014 4.77083e-014
rhumerus 35.5561 -42.0398 -85.1514
rradius 55.6745
rwrist -80.7687
rhand 3.39329 -11.872
rfingers 7.12502
rthumb 28.8363 -39.6638
lclavicle 1.23246e-014 4.77083e-014
lhumerus -38.4353 -5.85118 83.3751
lradius 75.2633
lwrist 13.944
lhand -15.5841 8.34768
lfingers 7.12502
lthumb 10.6014 38.0603
rfemur -20.3846 0.632338 23.9113
rtibia 29.6368
rfoot -17.5087 -23.0743
rtoes 5.29162
lfemur -20.5465 -2.19578 -17.7452
ltibia 24.9422
lfoot -11.7507 -12.0957
ltoes 15.3534
633
root -1.49606 17.8946 -10.0647 7.59648 69.0774 -5.24123
lowerback 9.17429 2.51944 12.7002
upperback -1.76403 5.42017 5.77366
thorax -6.51134 2.35706 -1.71345
lowerneck -3.45496 -18.2573 -18.4631
upperneck -17.6252 -22.249 21.4053
head -0.0330647 -10.8953 8.27984
rclavicle -1.35174e-014 -5.725e-014
rhumerus 31.869 -41.4113 -83.9241
rradius 57.7587
rwrist -81.1411
rhand 3.47923 -12.1693
rfingers 7.12502
rthumb 28.9184 -39.947
lclavicle -1.35174e-014 -5.725e-014
lhumerus -38.7836 -5.75284 83.5218
lradius 75.6537
lwrist 14.5733
lhand -16.5451 8.99783
lfingers 7.12502
lthumb 9.67429 38.7557
rfemur -20.4698 0.643205 23.8628
rtibia 29.6772
rfoot -17.5143 -23.0124
rtoes 5.24338
lfemur -20.5705 -2.26237 -17.7683
ltibia 24.9119
lfoot -11.7387 -11.9862
ltoes 15.2862
634
root -1.49289 17.8944 -10.0523 7.81542 68.9731 -5.04339
lowerback 9.17621 2.51669 12.6411
upperback -1.73384 5.41157 5.82941
thorax -6.49107 2.3591 -1.62137
lowerneck -3.62899 -18.2761 -18.5696
upperneck -17.1353 -22.3003 21.4525
head 0.163254 -10.913 8.24896
rclavicle 3.89618e-014 -5.40694e-014
rhumerus 28.3428 -40.7582 -82.9425
rradius 59.7312
rwrist -81.3537
rhand 3.51317 -12.433
rfingers 7.12502
rthumb 28.9508 -40.2052
lclavicle 3.89618e-014 -5.40694e-014
lhumerus -39.0629 -5.66903 83.7039
lradius 76.1023
lwrist 15.3817
lhand -17.517 9.71156
lfingers 7.12502
lthumb 8.73646 39.5108
rfemur -20.509 0.64581 23.819
rtibia 29.7179
rfoot -17.5339 -22.9204
rtoes 5.20693
lfemur -20.5537 -2.30307 -17.7892
ltibia 24.8943
lfoot -11.7428 -11.8892
ltoes 15.2232
635
root -1.49002 17.8938 -10.0385 7.99095 68.8655 -4.86289
lowerback 9.19239 2.5135 12.5473
upperback -1.694 5.40131 5.90157
thorax -6.47307 2.36234 -1.49394
lowerneck -3.76617 -18.2922 -18.6945
upperneck -16.693 -22.3486 21.5172
head 0.344383 -10.9302 8.23255
rclavicle -2.18663e-014 4.45278e-014
rhumerus 24.9674 -40.0646 -82.1478
rradius 61.5694
rwrist -81.4197
rhand 3.55359 -12.6444
rfingers 7.12502
rthumb 28.9894 -40.41
lclavicle -2.18663e-014 4.45278e-014
lhumerus -39.2838 -5.57041 83.9515
lradius 76.6082
lwrist 16.3589
lhand -18.5441 10.4741
lfingers 7.12502
lthumb 7.7452 40.3122
rfemur -20.518 0.649224 23.783
rtibia 29.7622
rfoot -17.5734 -22.8126
rtoes 5.21681
lfemur -20.5112 -2.31389 -17.8053
ltibia 24.8862
lfoot -11.7604 -11.8138
ltoes 15.1457
636
root -1.48775 17.8925 -10.0243 8.12187 68.7671 -4.71088
lowerback 9.21895 2.50848 12.4483
upperback -1.65342 5.39027 5.97773
thorax -6.46117 2.36517 -1.36004
lowerneck -3.84636 -18.3081 -18.8233
upperneck -16.3085 -22.3999 21.5954
head 0.503312 -10.9516 8.22904
rclavicle 7.95139e-016 -1.59028e-014
rhumerus 21.7275 -39.3753 -81.5488
rradius 63.2913
rwrist -81.3108
rhand 3.64124 -12.7905
rfingers 7.12502
rthumb 29.0731 -40.5416
lclavicle 7.95139e-016 -1.59028e-014
lhumerus -39.4493 -5.47729 84.2563
lradius 77.1586
lwrist 17.4661
lhand -19.6334 11.2706
lfingers 7.12502
lthumb 6.69368 41.1448
rfemur -20.5094 0.637992 23.7616
rtibia 29.8089
rfoot -17.615 -22.6984
rtoes 5.22399
lfemur -20.4585 -2.30726 -17.8136
ltibia 24.888
lfoot -11.7914 -11.7563
ltoes 15.0376
637
root -1.48608 17.8909 -10.01 8.19132 68.6831 -4.61122
lowerback 9.24468 2.4939 12.3579
upperback -1.61083 5.36835 6.06364
thorax -6.44817 2.36289 -1.21896
lowerneck -3.8696 -18.3154 -18.9657
upperneck -15.9864 -22.4425 21.683
head 0.637088 -10.971 8.24061
rclavicle 4.37326e-015 -7.95139e-014
rhumerus 18.6279 -38.6444 -81.0698
rradius 64.8409
rwrist -81.0799
rhand 3.78207 -12.8529
rfingers 7.12502
rthumb 29.2076 -40.5807
lclavicle 4.37326e-015 -7.95139e-014
lhumerus -39.559 -5.36667 84.6155
lradius 77.733
lwrist 18.6459
lhand -20.7793 12.069
lfingers 7.12502
lthumb 5.58744 41.9753
rfemur -20.4888 0.618695 23.7637
rtibia 29.8552
rfoot -17.6609 -22.5877
rtoes 5.24536
lfemur -20.4028 -2.29014 -17.8036
ltibia 24.9001
lfoot -11.8357 -11.7132
ltoes 14.9265
